<?xml version="1.0" encoding="UTF-8"?>
<svg xmlns="http://www.w3.org/2000/svg" width="1000" height="300" viewBox="0 0 1000 300">
  <style>
        text { fill: currentColor; dominant-baseline: middle; }
        .label { font: 500 20px "Inter", "Helvetica Neue", Arial, sans-serif; }
        .value { font: 18px "IBM Plex Mono", "Courier New", monospace; }
    </style>
  <rect x="0" y="10" width="1000" height="40" fill="rgba(255,255,255,0.15)" />
  <text class="label" x="20" y="30">ChronicleMap</text>
  <rect x="250" y="17" width="16" height="26" rx="6" ry="6" fill="#1F77B4" stroke="#1A6599" stroke-width="2" />
  <text class="value" x="282" y="30">3,715 ops/s</text>
  <rect x="0" y="70" width="1000" height="40" fill="rgba(255,255,255,0.15)" />
  <text class="label" x="20" y="90">H2</text>
  <rect x="250" y="77" width="169" height="26" rx="6" ry="6" fill="#2CA02C" stroke="#258825" stroke-width="2" />
  <text class="value" x="435" y="90">37,088 ops/s</text>
  <rect x="0" y="130" width="1000" height="40" fill="rgba(255,255,255,0.15)" />
  <text class="label" x="20" y="150">LevelDB</text>
  <rect x="250" y="137" width="283" height="26" rx="6" ry="6" fill="#ebeb49" stroke="#C7C73E" stroke-width="2" />
  <text class="value" x="549" y="150">62,152 ops/s</text>
  <rect x="0" y="190" width="1000" height="40" fill="rgba(255,255,255,0.15)" />
  <text class="label" x="20" y="210">MapDB</text>
  <rect x="250" y="197" width="78" height="26" rx="6" ry="6" fill="#9467BD" stroke="#7D57A0" stroke-width="2" />
  <text class="value" x="344" y="210">17,127 ops/s</text>
  <rect x="0" y="250" width="1000" height="40" fill="rgba(255,255,255,0.15)" />
  <text class="label" x="20" y="270">RocksDB</text>
  <rect x="250" y="257" width="590" height="26" rx="6" ry="6" fill="#17BECF" stroke="#13A1AF" stroke-width="2" />
  <text class="value" x="856" y="270">129,179 ops/s</text>
</svg>