<?xml version="1.0" encoding="UTF-8"?>
<svg xmlns="http://www.w3.org/2000/svg" width="1120" height="794" viewBox="0 0 1120 794">
  <style>
        text { fill: currentColor; dominant-baseline: middle; }
        .title { font: 600 26px "Inter", "Helvetica Neue", Arial, sans-serif; }
        .subtitle { font: 16px "Inter", "Helvetica Neue", Arial, sans-serif; fill: #5B667A; }
        .axis-label { font: 500 16px "Inter", "Helvetica Neue", Arial, sans-serif; }
        .tick { font: 14px "IBM Plex Mono", "Courier New", monospace; fill: #5B667A; }
        .legend { font: 500 16px "Inter", "Helvetica Neue", Arial, sans-serif; }
        .grid { stroke: #D7DCE5; stroke-width: 1; fill: none; }
        .axis { stroke: #8A94A6; stroke-width: 1.5; fill: none; }
    </style>
  <text class="title" x="110" y="36">Single-thread Read Latency Percentiles</text>
  <text class="subtitle" x="110" y="66">X axis: percentile, Y axis: latency (log scale)</text>
  <line class="grid" x1="110" y1="538.8205396328838" x2="1060" y2="538.8205396328838" />
  <text class="tick" x="96" y="538.8205396328838" text-anchor="end">0.5 us</text>
  <line class="grid" x1="110" y1="513.3333333333334" x2="1060" y2="513.3333333333334" />
  <text class="tick" x="96" y="513.3333333333334" text-anchor="end">1 us</text>
  <line class="grid" x1="110" y1="487.8461270337829" x2="1060" y2="487.8461270337829" />
  <text class="tick" x="96" y="487.8461270337829" text-anchor="end">2 us</text>
  <line class="grid" x1="110" y1="454.1538729662171" x2="1060" y2="454.1538729662171" />
  <text class="tick" x="96" y="454.1538729662171" text-anchor="end">5 us</text>
  <line class="grid" x1="110" y1="428.6666666666667" x2="1060" y2="428.6666666666667" />
  <text class="tick" x="96" y="428.6666666666667" text-anchor="end">10 us</text>
  <line class="grid" x1="110" y1="403.17946036711623" x2="1060" y2="403.17946036711623" />
  <text class="tick" x="96" y="403.17946036711623" text-anchor="end">20 us</text>
  <line class="grid" x1="110" y1="369.4872062995504" x2="1060" y2="369.4872062995504" />
  <text class="tick" x="96" y="369.4872062995504" text-anchor="end">50 us</text>
  <line class="grid" x1="110" y1="344.0" x2="1060" y2="344.0" />
  <text class="tick" x="96" y="344.0" text-anchor="end">100 us</text>
  <line class="grid" x1="110" y1="318.51279370044955" x2="1060" y2="318.51279370044955" />
  <text class="tick" x="96" y="318.51279370044955" text-anchor="end">200 us</text>
  <line class="grid" x1="110" y1="284.8205396328837" x2="1060" y2="284.8205396328837" />
  <text class="tick" x="96" y="284.8205396328837" text-anchor="end">500 us</text>
  <line class="grid" x1="110" y1="259.33333333333337" x2="1060" y2="259.33333333333337" />
  <text class="tick" x="96" y="259.33333333333337" text-anchor="end">1 000 us</text>
  <line class="grid" x1="110" y1="233.84612703378292" x2="1060" y2="233.84612703378292" />
  <text class="tick" x="96" y="233.84612703378292" text-anchor="end">2 000 us</text>
  <line class="grid" x1="110" y1="200.15387296621708" x2="1060" y2="200.15387296621708" />
  <text class="tick" x="96" y="200.15387296621708" text-anchor="end">5 000 us</text>
  <line class="grid" x1="110" y1="174.66666666666663" x2="1060" y2="174.66666666666663" />
  <text class="tick" x="96" y="174.66666666666663" text-anchor="end">10 000 us</text>
  <line class="grid" x1="110" y1="149.1794603671163" x2="1060" y2="149.1794603671163" />
  <text class="tick" x="96" y="149.1794603671163" text-anchor="end">20 000 us</text>
  <line class="axis" x1="110" y1="598" x2="1060" y2="598" />
  <line class="axis" x1="110" y1="90" x2="110" y2="598" />
  <line class="grid" x1="110.0" y1="90" x2="110.0" y2="598" />
  <text class="tick" x="110.0" y="626" text-anchor="middle">p50</text>
  <line class="grid" x1="245.71428571428572" y1="90" x2="245.71428571428572" y2="598" />
  <text class="tick" x="245.71428571428572" y="626" text-anchor="middle">p75</text>
  <line class="grid" x1="381.42857142857144" y1="90" x2="381.42857142857144" y2="598" />
  <text class="tick" x="381.42857142857144" y="626" text-anchor="middle">p90</text>
  <line class="grid" x1="517.1428571428571" y1="90" x2="517.1428571428571" y2="598" />
  <text class="tick" x="517.1428571428571" y="626" text-anchor="middle">p95</text>
  <line class="grid" x1="652.8571428571429" y1="90" x2="652.8571428571429" y2="598" />
  <text class="tick" x="652.8571428571429" y="626" text-anchor="middle">p99</text>
  <line class="grid" x1="788.5714285714287" y1="90" x2="788.5714285714287" y2="598" />
  <text class="tick" x="788.5714285714287" y="626" text-anchor="middle">p99.5</text>
  <line class="grid" x1="924.2857142857143" y1="90" x2="924.2857142857143" y2="598" />
  <text class="tick" x="924.2857142857143" y="626" text-anchor="middle">p99.9</text>
  <line class="grid" x1="1060.0" y1="90" x2="1060.0" y2="598" />
  <text class="tick" x="1060.0" y="626" text-anchor="middle">p99.99</text>
  <text class="axis-label" x="585" y="660" text-anchor="middle">Percentile</text>
  <text class="axis-label" x="28" y="344" transform="rotate(-90 28 344)" text-anchor="middle">Latency (us/op)</text>
  <polyline points="110.00,538.82 245.71,538.82 381.43,535.85 517.14,533.17 652.86,528.28 788.57,526.03 924.29,514.87 1060.00,446.72" fill="none" stroke="#1F77B4" stroke-width="3" stroke-linejoin="round" stroke-linecap="round" />
  <circle cx="110.0" cy="538.8205396328838" r="4.5" fill="#1F77B4" stroke="#1A6599" stroke-width="1.5" />
  <circle cx="245.71428571428572" cy="538.8205396328838" r="4.5" fill="#1F77B4" stroke="#1A6599" stroke-width="1.5" />
  <circle cx="381.42857142857144" cy="535.8547270730833" r="4.5" fill="#1F77B4" stroke="#1A6599" stroke-width="1.5" />
  <circle cx="517.1428571428571" cy="533.1733956970702" r="4.5" fill="#1F77B4" stroke="#1A6599" stroke-width="1.5" />
  <circle cx="652.8571428571429" cy="528.2791819302479" r="4.5" fill="#1F77B4" stroke="#1A6599" stroke-width="1.5" />
  <circle cx="788.5714285714287" cy="526.0305175155995" r="4.5" fill="#1F77B4" stroke="#1A6599" stroke-width="1.5" />
  <circle cx="924.2857142857143" cy="514.8726912595505" r="4.5" fill="#1F77B4" stroke="#1A6599" stroke-width="1.5" />
  <circle cx="1060.0" cy="446.7217129250092" r="4.5" fill="#1F77B4" stroke="#1A6599" stroke-width="1.5" />
  <polyline points="110.00,510.44 245.71,505.13 381.43,501.65 517.14,498.42 652.86,493.65 788.57,487.85 924.29,470.98 1060.00,429.80" fill="none" stroke="#2CA02C" stroke-width="3" stroke-linejoin="round" stroke-linecap="round" />
  <circle cx="110.0" cy="510.43542525476005" r="4.5" fill="#2CA02C" stroke="#258825" stroke-width="1.5" />
  <circle cx="245.71428571428572" cy="505.12828556531787" r="4.5" fill="#2CA02C" stroke="#258825" stroke-width="1.5" />
  <circle cx="381.42857142857144" cy="501.65045662940764" r="4.5" fill="#2CA02C" stroke="#258825" stroke-width="1.5" />
  <circle cx="517.1428571428571" cy="498.4242733999523" r="4.5" fill="#2CA02C" stroke="#258825" stroke-width="1.5" />
  <circle cx="652.8571428571429" cy="493.6493606487805" r="4.5" fill="#2CA02C" stroke="#258825" stroke-width="1.5" />
  <circle cx="788.5714285714287" cy="487.8461270337829" r="4.5" fill="#2CA02C" stroke="#258825" stroke-width="1.5" />
  <circle cx="924.2857142857143" cy="470.97997846476255" r="4.5" fill="#2CA02C" stroke="#258825" stroke-width="1.5" />
  <circle cx="1060.0" cy="429.80182595571944" r="4.5" fill="#2CA02C" stroke="#258825" stroke-width="1.5" />
  <polyline points="110.00,443.37 245.71,313.68 381.43,312.03 517.14,308.06 652.86,283.91 788.57,283.00 924.29,277.31 1060.00,142.95" fill="none" stroke="#E53935" stroke-width="3" stroke-linejoin="round" stroke-linecap="round" />
  <circle cx="110.0" cy="443.37038752398536" r="4.5" fill="#E53935" stroke="#C2302D" stroke-width="1.5" />
  <circle cx="245.71428571428572" cy="313.679370661808" r="4.5" fill="#E53935" stroke="#C2302D" stroke-width="1.5" />
  <circle cx="381.42857142857144" cy="312.02513569095964" r="4.5" fill="#E53935" stroke="#C2302D" stroke-width="1.5" />
  <circle cx="517.1428571428571" cy="308.06430700621024" r="4.5" fill="#E53935" stroke="#C2302D" stroke-width="1.5" />
  <circle cx="652.8571428571429" cy="283.9117247441307" r="4.5" fill="#E53935" stroke="#C2302D" stroke-width="1.5" />
  <circle cx="788.5714285714287" cy="283.00466675836213" r="4.5" fill="#E53935" stroke="#C2302D" stroke-width="1.5" />
  <circle cx="924.2857142857143" cy="277.3057993755342" r="4.5" fill="#E53935" stroke="#C2302D" stroke-width="1.5" />
  <circle cx="1060.0" cy="142.95152966914026" r="4.5" fill="#E53935" stroke="#C2302D" stroke-width="1.5" />
  <polyline points="110.00,463.55 245.71,315.37 381.43,314.05 517.14,311.17 652.86,293.85 788.57,293.23 924.29,285.07 1060.00,142.60" fill="none" stroke="#E53935" stroke-width="3" stroke-linejoin="round" stroke-linecap="round" />
  <circle cx="110.0" cy="463.55480714878854" r="4.5" fill="#E53935" stroke="#C2302D" stroke-width="1.5" />
  <circle cx="245.71428571428572" cy="315.36831351643497" r="4.5" fill="#E53935" stroke="#C2302D" stroke-width="1.5" />
  <circle cx="381.42857142857144" cy="314.052676062436" r="4.5" fill="#E53935" stroke="#C2302D" stroke-width="1.5" />
  <circle cx="517.1428571428571" cy="311.16725387865" r="4.5" fill="#E53935" stroke="#C2302D" stroke-width="1.5" />
  <circle cx="652.8571428571429" cy="293.84657227797123" r="4.5" fill="#E53935" stroke="#C2302D" stroke-width="1.5" />
  <circle cx="788.5714285714287" cy="293.2261637122356" r="4.5" fill="#E53935" stroke="#C2302D" stroke-width="1.5" />
  <circle cx="924.2857142857143" cy="285.0684698028376" r="4.5" fill="#E53935" stroke="#C2302D" stroke-width="1.5" />
  <circle cx="1060.0" cy="142.59723668321197" r="4.5" fill="#E53935" stroke="#C2302D" stroke-width="1.5" />
  <polyline points="110.00,461.59 245.71,458.06 381.43,448.49 517.14,446.20 652.86,438.87 788.57,435.57 924.29,425.62 1060.00,296.39" fill="none" stroke="#ebeb49" stroke-width="3" stroke-linejoin="round" stroke-linecap="round" />
  <circle cx="110.0" cy="461.5947412375408" r="4.5" fill="#ebeb49" stroke="#C7C73E" stroke-width="1.5" />
  <circle cx="245.71428571428572" cy="458.0607063831683" r="4.5" fill="#ebeb49" stroke="#C7C73E" stroke-width="1.5" />
  <circle cx="381.42857142857144" cy="448.4941170370936" r="4.5" fill="#ebeb49" stroke="#C7C73E" stroke-width="1.5" />
  <circle cx="517.1428571428571" cy="446.1967553681555" r="4.5" fill="#ebeb49" stroke="#C7C73E" stroke-width="1.5" />
  <circle cx="652.8571428571429" cy="438.8740828790716" r="4.5" fill="#ebeb49" stroke="#C7C73E" stroke-width="1.5" />
  <circle cx="788.5714285714287" cy="435.57125514336866" r="4.5" fill="#ebeb49" stroke="#C7C73E" stroke-width="1.5" />
  <circle cx="924.2857142857143" cy="425.61953391271595" r="4.5" fill="#ebeb49" stroke="#C7C73E" stroke-width="1.5" />
  <circle cx="1060.0" cy="296.38689644325507" r="4.5" fill="#ebeb49" stroke="#C7C73E" stroke-width="1.5" />
  <polyline points="110.00,453.57 245.71,449.83 381.43,447.99 517.14,446.96 652.86,444.53 788.57,441.57 924.29,433.23 1060.00,400.24" fill="none" stroke="#9467BD" stroke-width="3" stroke-linejoin="round" stroke-linecap="round" />
  <circle cx="110.0" cy="453.57020569329484" r="4.5" fill="#9467BD" stroke="#7D57A0" stroke-width="1.5" />
  <circle cx="245.71428571428572" cy="449.829496916337" r="4.5" fill="#9467BD" stroke="#7D57A0" stroke-width="1.5" />
  <circle cx="381.42857142857144" cy="447.9931519839202" r="4.5" fill="#9467BD" stroke="#7D57A0" stroke-width="1.5" />
  <circle cx="517.1428571428571" cy="446.9628302882418" r="4.5" fill="#9467BD" stroke="#7D57A0" stroke-width="1.5" />
  <circle cx="652.8571428571429" cy="444.5293039589293" r="4.5" fill="#9467BD" stroke="#7D57A0" stroke-width="1.5" />
  <circle cx="788.5714285714287" cy="441.57218152596784" r="4.5" fill="#9467BD" stroke="#7D57A0" stroke-width="1.5" />
  <circle cx="924.2857142857143" cy="433.2336662207262" r="4.5" fill="#9467BD" stroke="#7D57A0" stroke-width="1.5" />
  <circle cx="1060.0" cy="400.2407945535724" r="4.5" fill="#9467BD" stroke="#7D57A0" stroke-width="1.5" />
  <polyline points="110.00,444.98 245.71,441.57 381.43,435.93 517.14,434.52 652.86,431.41 788.57,429.02 924.29,420.38 1060.00,394.10" fill="none" stroke="#17BECF" stroke-width="3" stroke-linejoin="round" stroke-linecap="round" />
  <circle cx="110.0" cy="444.9849512532896" r="4.5" fill="#17BECF" stroke="#13A1AF" stroke-width="1.5" />
  <circle cx="245.71428571428572" cy="441.57218152596784" r="4.5" fill="#17BECF" stroke="#13A1AF" stroke-width="1.5" />
  <circle cx="381.42857142857144" cy="435.92790455566455" r="4.5" fill="#17BECF" stroke="#13A1AF" stroke-width="1.5" />
  <circle cx="517.1428571428571" cy="434.5216044375486" r="4.5" fill="#17BECF" stroke="#13A1AF" stroke-width="1.5" />
  <circle cx="652.8571428571429" cy="431.41427134680305" r="4.5" fill="#17BECF" stroke="#13A1AF" stroke-width="1.5" />
  <circle cx="788.5714285714287" cy="429.0213665180951" r="4.5" fill="#17BECF" stroke="#13A1AF" stroke-width="1.5" />
  <circle cx="924.2857142857143" cy="420.3793456142258" r="4.5" fill="#17BECF" stroke="#13A1AF" stroke-width="1.5" />
  <circle cx="1060.0" cy="394.10234960359674" r="4.5" fill="#17BECF" stroke="#13A1AF" stroke-width="1.5" />
  <line x1="120.0" y1="702.0" x2="150.0" y2="702.0" stroke="#1F77B4" stroke-width="4" stroke-linecap="round" />
  <text class="legend" x="162.0" y="702.0">ChronicleMap</text>
  <line x1="357.5" y1="702.0" x2="387.5" y2="702.0" stroke="#2CA02C" stroke-width="4" stroke-linecap="round" />
  <text class="legend" x="399.5" y="702.0">H2</text>
  <line x1="595.0" y1="702.0" x2="625.0" y2="702.0" stroke="#E53935" stroke-width="4" stroke-linecap="round" />
  <text class="legend" x="637.0" y="702.0">HestiaStoreBasic</text>
  <line x1="832.5" y1="702.0" x2="862.5" y2="702.0" stroke="#E53935" stroke-width="4" stroke-linecap="round" />
  <text class="legend" x="874.5" y="702.0">HestiaStoreCompress</text>
  <line x1="120.0" y1="736.0" x2="150.0" y2="736.0" stroke="#ebeb49" stroke-width="4" stroke-linecap="round" />
  <text class="legend" x="162.0" y="736.0">LevelDB</text>
  <line x1="357.5" y1="736.0" x2="387.5" y2="736.0" stroke="#9467BD" stroke-width="4" stroke-linecap="round" />
  <text class="legend" x="399.5" y="736.0">MapDB</text>
  <line x1="595.0" y1="736.0" x2="625.0" y2="736.0" stroke="#17BECF" stroke-width="4" stroke-linecap="round" />
  <text class="legend" x="637.0" y="736.0">RocksDB</text>
</svg>