<?xml version="1.0" encoding="UTF-8"?>
<svg xmlns="http://www.w3.org/2000/svg" width="1120" height="794" viewBox="0 0 1120 794">
  <style>
        text { fill: currentColor; dominant-baseline: middle; }
        .title { font: 600 26px "Inter", "Helvetica Neue", Arial, sans-serif; }
        .subtitle { font: 16px "Inter", "Helvetica Neue", Arial, sans-serif; fill: #5B667A; }
        .axis-label { font: 500 16px "Inter", "Helvetica Neue", Arial, sans-serif; }
        .tick { font: 14px "IBM Plex Mono", "Courier New", monospace; fill: #5B667A; }
        .legend { font: 500 16px "Inter", "Helvetica Neue", Arial, sans-serif; }
        .grid { stroke: #D7DCE5; stroke-width: 1; fill: none; }
        .axis { stroke: #8A94A6; stroke-width: 1.5; fill: none; }
    </style>
  <text class="title" x="110" y="36">Single-thread Read Latency Percentiles</text>
  <text class="subtitle" x="110" y="66">X axis: percentile, Y axis: latency (log scale)</text>
  <line class="grid" x1="110" y1="509.23080944932565" x2="1060" y2="509.23080944932565" />
  <text class="tick" x="96" y="509.23080944932565" text-anchor="end">0.5 us</text>
  <line class="grid" x1="110" y1="471.0" x2="1060" y2="471.0" />
  <text class="tick" x="96" y="471.0" text-anchor="end">1 us</text>
  <line class="grid" x1="110" y1="432.76919055067435" x2="1060" y2="432.76919055067435" />
  <text class="tick" x="96" y="432.76919055067435" text-anchor="end">2 us</text>
  <line class="grid" x1="110" y1="382.23080944932565" x2="1060" y2="382.23080944932565" />
  <text class="tick" x="96" y="382.23080944932565" text-anchor="end">5 us</text>
  <line class="grid" x1="110" y1="344.0" x2="1060" y2="344.0" />
  <text class="tick" x="96" y="344.0" text-anchor="end">10 us</text>
  <line class="grid" x1="110" y1="305.76919055067435" x2="1060" y2="305.76919055067435" />
  <text class="tick" x="96" y="305.76919055067435" text-anchor="end">20 us</text>
  <line class="grid" x1="110" y1="255.23080944932565" x2="1060" y2="255.23080944932565" />
  <text class="tick" x="96" y="255.23080944932565" text-anchor="end">50 us</text>
  <line class="grid" x1="110" y1="217.0" x2="1060" y2="217.0" />
  <text class="tick" x="96" y="217.0" text-anchor="end">100 us</text>
  <line class="grid" x1="110" y1="178.76919055067435" x2="1060" y2="178.76919055067435" />
  <text class="tick" x="96" y="178.76919055067435" text-anchor="end">200 us</text>
  <line class="axis" x1="110" y1="598" x2="1060" y2="598" />
  <line class="axis" x1="110" y1="90" x2="110" y2="598" />
  <line class="grid" x1="110.0" y1="90" x2="110.0" y2="598" />
  <text class="tick" x="110.0" y="626" text-anchor="middle">p50</text>
  <line class="grid" x1="245.71428571428572" y1="90" x2="245.71428571428572" y2="598" />
  <text class="tick" x="245.71428571428572" y="626" text-anchor="middle">p75</text>
  <line class="grid" x1="381.42857142857144" y1="90" x2="381.42857142857144" y2="598" />
  <text class="tick" x="381.42857142857144" y="626" text-anchor="middle">p90</text>
  <line class="grid" x1="517.1428571428571" y1="90" x2="517.1428571428571" y2="598" />
  <text class="tick" x="517.1428571428571" y="626" text-anchor="middle">p95</text>
  <line class="grid" x1="652.8571428571429" y1="90" x2="652.8571428571429" y2="598" />
  <text class="tick" x="652.8571428571429" y="626" text-anchor="middle">p99</text>
  <line class="grid" x1="788.5714285714287" y1="90" x2="788.5714285714287" y2="598" />
  <text class="tick" x="788.5714285714287" y="626" text-anchor="middle">p99.5</text>
  <line class="grid" x1="924.2857142857143" y1="90" x2="924.2857142857143" y2="598" />
  <text class="tick" x="924.2857142857143" y="626" text-anchor="middle">p99.9</text>
  <line class="grid" x1="1060.0" y1="90" x2="1060.0" y2="598" />
  <text class="tick" x="1060.0" y="626" text-anchor="middle">p99.99</text>
  <text class="axis-label" x="585" y="660" text-anchor="middle">Percentile</text>
  <text class="axis-label" x="28" y="344" transform="rotate(-90 28 344)" text-anchor="middle">Latency (us/op)</text>
  <polyline points="110.00,513.95 245.71,509.23 381.43,504.78 517.14,500.76 652.86,496.92 788.57,490.05 924.29,473.37 1060.00,373.36" fill="none" stroke="#1F77B4" stroke-width="3" stroke-linejoin="round" stroke-linecap="round" />
  <circle cx="110.0" cy="513.9497889367678" r="4.5" fill="#1F77B4" stroke="#1A6599" stroke-width="1.5" />
  <circle cx="245.71428571428572" cy="509.23080944932565" r="4.5" fill="#1F77B4" stroke="#1A6599" stroke-width="1.5" />
  <circle cx="381.42857142857144" cy="504.7820906096249" r="4.5" fill="#1F77B4" stroke="#1A6599" stroke-width="1.5" />
  <circle cx="517.1428571428571" cy="500.76009354560523" r="4.5" fill="#1F77B4" stroke="#1A6599" stroke-width="1.5" />
  <circle cx="652.8571428571429" cy="496.9232377973025" r="4.5" fill="#1F77B4" stroke="#1A6599" stroke-width="1.5" />
  <circle cx="788.5714285714287" cy="490.0457762733993" r="4.5" fill="#1F77B4" stroke="#1A6599" stroke-width="1.5" />
  <circle cx="924.2857142857143" cy="473.36658034702486" r="4.5" fill="#1F77B4" stroke="#1A6599" stroke-width="1.5" />
  <circle cx="1060.0" cy="373.3641720426822" r="4.5" fill="#1F77B4" stroke="#1A6599" stroke-width="1.5" />
  <polyline points="110.00,468.73 245.71,460.58 381.43,455.19 517.14,451.81 652.86,444.26 788.57,437.61 924.29,411.22 1060.00,350.85" fill="none" stroke="#2CA02C" stroke-width="3" stroke-linejoin="round" stroke-linecap="round" />
  <circle cx="110.0" cy="468.7307996916348" r="4.5" fill="#2CA02C" stroke="#258825" stroke-width="1.5" />
  <circle cx="245.71428571428572" cy="460.57749934579067" r="4.5" fill="#2CA02C" stroke="#258825" stroke-width="1.5" />
  <circle cx="381.42857142857144" cy="455.1879634460462" r="4.5" fill="#2CA02C" stroke="#258825" stroke-width="1.5" />
  <circle cx="517.1428571428571" cy="451.81496682407374" r="4.5" fill="#2CA02C" stroke="#258825" stroke-width="1.5" />
  <circle cx="652.8571428571429" cy="444.2555748370451" r="4.5" fill="#2CA02C" stroke="#258825" stroke-width="1.5" />
  <circle cx="788.5714285714287" cy="437.6084653948574" r="4.5" fill="#2CA02C" stroke="#258825" stroke-width="1.5" />
  <circle cx="924.2857142857143" cy="411.2205374252059" r="4.5" fill="#2CA02C" stroke="#258825" stroke-width="1.5" />
  <circle cx="1060.0" cy="350.8504993310893" r="4.5" fill="#2CA02C" stroke="#258825" stroke-width="1.5" />
  <polyline points="110.00,393.99 245.71,390.70 381.43,387.12 517.14,383.66 652.86,367.12 788.57,362.74 924.29,348.31 1060.00,147.15" fill="none" stroke="#ebeb49" stroke-width="3" stroke-linejoin="round" stroke-linecap="round" />
  <circle cx="110.0" cy="393.98956663095316" r="4.5" fill="#ebeb49" stroke="#C7C73E" stroke-width="1.5" />
  <circle cx="245.71428571428572" cy="390.7036433610414" r="4.5" fill="#ebeb49" stroke="#C7C73E" stroke-width="1.5" />
  <circle cx="381.42857142857144" cy="387.1182759953091" r="4.5" fill="#ebeb49" stroke="#C7C73E" stroke-width="1.5" />
  <circle cx="517.1428571428571" cy="383.661175487648" r="4.5" fill="#ebeb49" stroke="#C7C73E" stroke-width="1.5" />
  <circle cx="652.8571428571429" cy="367.1188508244368" r="4.5" fill="#ebeb49" stroke="#C7C73E" stroke-width="1.5" />
  <circle cx="788.5714285714287" cy="362.73504080811927" r="4.5" fill="#ebeb49" stroke="#C7C73E" stroke-width="1.5" />
  <circle cx="924.2857142857143" cy="348.31192672329036" r="4.5" fill="#ebeb49" stroke="#C7C73E" stroke-width="1.5" />
  <circle cx="1060.0" cy="147.14959416037004" r="4.5" fill="#ebeb49" stroke="#C7C73E" stroke-width="1.5" />
  <polyline points="110.00,378.73 245.71,372.99 381.43,370.30 517.14,369.24 652.86,366.39 788.57,363.05 924.29,349.86 1060.00,308.02" fill="none" stroke="#9467BD" stroke-width="3" stroke-linejoin="round" stroke-linecap="round" />
  <circle cx="110.0" cy="378.7263445473949" r="4.5" fill="#9467BD" stroke="#7D57A0" stroke-width="1.5" />
  <circle cx="245.71428571428572" cy="372.9897279758803" r="4.5" fill="#9467BD" stroke="#7D57A0" stroke-width="1.5" />
  <circle cx="381.42857142857144" cy="370.29513305223327" r="4.5" fill="#9467BD" stroke="#7D57A0" stroke-width="1.5" />
  <circle cx="517.1428571428571" cy="369.23915824781824" r="4.5" fill="#9467BD" stroke="#7D57A0" stroke-width="1.5" />
  <circle cx="652.8571428571429" cy="366.3856564733611" r="4.5" fill="#9467BD" stroke="#7D57A0" stroke-width="1.5" />
  <circle cx="788.5714285714287" cy="363.0457762733994" r="4.5" fill="#9467BD" stroke="#7D57A0" stroke-width="1.5" />
  <circle cx="924.2857142857143" cy="349.8602501254268" r="4.5" fill="#9467BD" stroke="#7D57A0" stroke-width="1.5" />
  <circle cx="1060.0" cy="308.02074395464916" r="4.5" fill="#9467BD" stroke="#7D57A0" stroke-width="1.5" />
  <polyline points="110.00,369.94 245.71,365.01 381.43,356.92 517.14,354.89 652.86,350.35 788.57,347.37 924.29,333.94 1060.00,302.76" fill="none" stroke="#17BECF" stroke-width="3" stroke-linejoin="round" stroke-linecap="round" />
  <circle cx="110.0" cy="369.94089034960604" r="4.5" fill="#17BECF" stroke="#13A1AF" stroke-width="1.5" />
  <circle cx="245.71428571428572" cy="365.0124220745195" r="4.5" fill="#17BECF" stroke="#13A1AF" stroke-width="1.5" />
  <circle cx="381.42857142857144" cy="356.9176426191814" r="4.5" fill="#17BECF" stroke="#13A1AF" stroke-width="1.5" />
  <circle cx="517.1428571428571" cy="354.8918568334969" r="4.5" fill="#17BECF" stroke="#13A1AF" stroke-width="1.5" />
  <circle cx="652.8571428571429" cy="350.353152415634" r="4.5" fill="#17BECF" stroke="#13A1AF" stroke-width="1.5" />
  <circle cx="788.5714285714287" cy="347.36584179102795" r="4.5" fill="#17BECF" stroke="#13A1AF" stroke-width="1.5" />
  <circle cx="924.2857142857143" cy="333.9439817519516" r="4.5" fill="#17BECF" stroke="#13A1AF" stroke-width="1.5" />
  <circle cx="1060.0" cy="302.76387293955463" r="4.5" fill="#17BECF" stroke="#13A1AF" stroke-width="1.5" />
  <line x1="120.0" y1="702.0" x2="150.0" y2="702.0" stroke="#1F77B4" stroke-width="4" stroke-linecap="round" />
  <text class="legend" x="162.0" y="702.0">ChronicleMap</text>
  <line x1="357.5" y1="702.0" x2="387.5" y2="702.0" stroke="#2CA02C" stroke-width="4" stroke-linecap="round" />
  <text class="legend" x="399.5" y="702.0">H2</text>
  <line x1="595.0" y1="702.0" x2="625.0" y2="702.0" stroke="#ebeb49" stroke-width="4" stroke-linecap="round" />
  <text class="legend" x="637.0" y="702.0">LevelDB</text>
  <line x1="832.5" y1="702.0" x2="862.5" y2="702.0" stroke="#9467BD" stroke-width="4" stroke-linecap="round" />
  <text class="legend" x="874.5" y="702.0">MapDB</text>
  <line x1="120.0" y1="736.0" x2="150.0" y2="736.0" stroke="#17BECF" stroke-width="4" stroke-linecap="round" />
  <text class="legend" x="162.0" y="736.0">RocksDB</text>
</svg>