<?xml version="1.0" encoding="UTF-8"?>
<svg xmlns="http://www.w3.org/2000/svg" width="1120" height="794" viewBox="0 0 1120 794">
  <style>
        text { fill: currentColor; dominant-baseline: middle; }
        .title { font: 600 26px "Inter", "Helvetica Neue", Arial, sans-serif; }
        .subtitle { font: 16px "Inter", "Helvetica Neue", Arial, sans-serif; fill: #5B667A; }
        .axis-label { font: 500 16px "Inter", "Helvetica Neue", Arial, sans-serif; }
        .tick { font: 14px "IBM Plex Mono", "Courier New", monospace; fill: #5B667A; }
        .legend { font: 500 16px "Inter", "Helvetica Neue", Arial, sans-serif; }
        .grid { stroke: #D7DCE5; stroke-width: 1; fill: none; }
        .axis { stroke: #8A94A6; stroke-width: 1.5; fill: none; }
    </style>
  <text class="title" x="110" y="36">Multi-thread Read Latency Percentiles</text>
  <text class="subtitle" x="110" y="66">X axis: percentile, Y axis: latency (log scale)</text>
  <line class="grid" x1="110" y1="525.4285714285714" x2="1060" y2="525.4285714285714" />
  <text class="tick" x="96" y="525.4285714285714" text-anchor="end">1 us</text>
  <line class="grid" x1="110" y1="503.5823946003854" x2="1060" y2="503.5823946003854" />
  <text class="tick" x="96" y="503.5823946003854" text-anchor="end">2 us</text>
  <line class="grid" x1="110" y1="474.70331968532895" x2="1060" y2="474.70331968532895" />
  <text class="tick" x="96" y="474.70331968532895" text-anchor="end">5 us</text>
  <line class="grid" x1="110" y1="452.8571428571429" x2="1060" y2="452.8571428571429" />
  <text class="tick" x="96" y="452.8571428571429" text-anchor="end">10 us</text>
  <line class="grid" x1="110" y1="431.0109660289568" x2="1060" y2="431.0109660289568" />
  <text class="tick" x="96" y="431.0109660289568" text-anchor="end">20 us</text>
  <line class="grid" x1="110" y1="402.13189111390034" x2="1060" y2="402.13189111390034" />
  <text class="tick" x="96" y="402.13189111390034" text-anchor="end">50 us</text>
  <line class="grid" x1="110" y1="380.28571428571433" x2="1060" y2="380.28571428571433" />
  <text class="tick" x="96" y="380.28571428571433" text-anchor="end">100 us</text>
  <line class="grid" x1="110" y1="358.4395374575282" x2="1060" y2="358.4395374575282" />
  <text class="tick" x="96" y="358.4395374575282" text-anchor="end">200 us</text>
  <line class="grid" x1="110" y1="329.5604625424718" x2="1060" y2="329.5604625424718" />
  <text class="tick" x="96" y="329.5604625424718" text-anchor="end">500 us</text>
  <line class="grid" x1="110" y1="307.7142857142857" x2="1060" y2="307.7142857142857" />
  <text class="tick" x="96" y="307.7142857142857" text-anchor="end">1 000 us</text>
  <line class="grid" x1="110" y1="285.8681088860996" x2="1060" y2="285.8681088860996" />
  <text class="tick" x="96" y="285.8681088860996" text-anchor="end">2 000 us</text>
  <line class="grid" x1="110" y1="256.98903397104317" x2="1060" y2="256.98903397104317" />
  <text class="tick" x="96" y="256.98903397104317" text-anchor="end">5 000 us</text>
  <line class="grid" x1="110" y1="235.1428571428571" x2="1060" y2="235.1428571428571" />
  <text class="tick" x="96" y="235.1428571428571" text-anchor="end">10 000 us</text>
  <line class="grid" x1="110" y1="213.2966803146711" x2="1060" y2="213.2966803146711" />
  <text class="tick" x="96" y="213.2966803146711" text-anchor="end">20 000 us</text>
  <line class="grid" x1="110" y1="184.41760539961467" x2="1060" y2="184.41760539961467" />
  <text class="tick" x="96" y="184.41760539961467" text-anchor="end">50 000 us</text>
  <line class="grid" x1="110" y1="162.5714285714286" x2="1060" y2="162.5714285714286" />
  <text class="tick" x="96" y="162.5714285714286" text-anchor="end">100 000 us</text>
  <line class="axis" x1="110" y1="598" x2="1060" y2="598" />
  <line class="axis" x1="110" y1="90" x2="110" y2="598" />
  <line class="grid" x1="110.0" y1="90" x2="110.0" y2="598" />
  <text class="tick" x="110.0" y="626" text-anchor="middle">p50</text>
  <line class="grid" x1="245.71428571428572" y1="90" x2="245.71428571428572" y2="598" />
  <text class="tick" x="245.71428571428572" y="626" text-anchor="middle">p75</text>
  <line class="grid" x1="381.42857142857144" y1="90" x2="381.42857142857144" y2="598" />
  <text class="tick" x="381.42857142857144" y="626" text-anchor="middle">p90</text>
  <line class="grid" x1="517.1428571428571" y1="90" x2="517.1428571428571" y2="598" />
  <text class="tick" x="517.1428571428571" y="626" text-anchor="middle">p95</text>
  <line class="grid" x1="652.8571428571429" y1="90" x2="652.8571428571429" y2="598" />
  <text class="tick" x="652.8571428571429" y="626" text-anchor="middle">p99</text>
  <line class="grid" x1="788.5714285714287" y1="90" x2="788.5714285714287" y2="598" />
  <text class="tick" x="788.5714285714287" y="626" text-anchor="middle">p99.5</text>
  <line class="grid" x1="924.2857142857143" y1="90" x2="924.2857142857143" y2="598" />
  <text class="tick" x="924.2857142857143" y="626" text-anchor="middle">p99.9</text>
  <line class="grid" x1="1060.0" y1="90" x2="1060.0" y2="598" />
  <text class="tick" x="1060.0" y="626" text-anchor="middle">p99.99</text>
  <text class="axis-label" x="585" y="660" text-anchor="middle">Percentile</text>
  <text class="axis-label" x="28" y="344" transform="rotate(-90 28 344)" text-anchor="middle">Latency (us/op)</text>
  <polyline points="110.00,534.50 245.71,529.64 381.43,520.59 517.14,509.34 652.86,450.85 788.57,442.47 924.29,422.11 1060.00,387.37" fill="none" stroke="#1F77B4" stroke-width="3" stroke-linejoin="round" stroke-linecap="round" />
  <circle cx="110.0" cy="534.4955540281452" r="4.5" fill="#1F77B4" stroke="#1A6599" stroke-width="1.5" />
  <circle cx="245.71428571428572" cy="529.6371298663807" r="4.5" fill="#1F77B4" stroke="#1A6599" stroke-width="1.5" />
  <circle cx="381.42857142857144" cy="520.5881623407312" r="4.5" fill="#1F77B4" stroke="#1A6599" stroke-width="1.5" />
  <circle cx="517.1428571428571" cy="509.3413002125785" r="4.5" fill="#1F77B4" stroke="#1A6599" stroke-width="1.5" />
  <circle cx="652.8571428571429" cy="450.85459148461103" r="4.5" fill="#1F77B4" stroke="#1A6599" stroke-width="1.5" />
  <circle cx="788.5714285714287" cy="442.46928605355254" r="4.5" fill="#1F77B4" stroke="#1A6599" stroke-width="1.5" />
  <circle cx="924.2857142857143" cy="422.1083013562784" r="4.5" fill="#1F77B4" stroke="#1A6599" stroke-width="1.5" />
  <circle cx="1060.0" cy="387.36908055145875" r="4.5" fill="#1F77B4" stroke="#1A6599" stroke-width="1.5" />
  <polyline points="110.00,516.39 245.71,511.82 381.43,508.56 517.14,506.35 652.86,500.46 788.57,495.56 924.29,471.22 1060.00,429.82" fill="none" stroke="#2CA02C" stroke-width="3" stroke-linejoin="round" stroke-linecap="round" />
  <circle cx="110.0" cy="516.3931219691692" r="4.5" fill="#2CA02C" stroke="#258825" stroke-width="1.5" />
  <circle cx="245.71428571428572" cy="511.81992483072526" r="4.5" fill="#2CA02C" stroke="#258825" stroke-width="1.5" />
  <circle cx="381.42857142857144" cy="508.5565948418119" r="4.5" fill="#2CA02C" stroke="#258825" stroke-width="1.5" />
  <circle cx="517.1428571428571" cy="506.3476945113471" r="4.5" fill="#2CA02C" stroke="#258825" stroke-width="1.5" />
  <circle cx="652.8571428571429" cy="500.46406755985174" r="4.5" fill="#2CA02C" stroke="#258825" stroke-width="1.5" />
  <circle cx="788.5714285714287" cy="495.5567413386684" r="4.5" fill="#2CA02C" stroke="#258825" stroke-width="1.5" />
  <circle cx="924.2857142857143" cy="471.2216759879324" r="4.5" fill="#2CA02C" stroke="#258825" stroke-width="1.5" />
  <circle cx="1060.0" cy="429.82335786270005" r="4.5" fill="#2CA02C" stroke="#258825" stroke-width="1.5" />
  <polyline points="110.00,423.75 245.71,344.91 381.43,324.79 517.14,311.00 652.86,283.58 788.57,274.34 924.29,246.96 1060.00,160.38" fill="none" stroke="#E53935" stroke-width="3" stroke-linejoin="round" stroke-linecap="round" />
  <circle cx="110.0" cy="423.746949567869" r="4.5" fill="#E53935" stroke="#C2302D" stroke-width="1.5" />
  <circle cx="245.71428571428572" cy="344.912860661341" r="4.5" fill="#E53935" stroke="#C2302D" stroke-width="1.5" />
  <circle cx="381.42857142857144" cy="324.79409535511115" r="4.5" fill="#E53935" stroke="#C2302D" stroke-width="1.5" />
  <circle cx="517.1428571428571" cy="310.9957749392414" r="4.5" fill="#E53935" stroke="#C2302D" stroke-width="1.5" />
  <circle cx="652.8571428571429" cy="283.58288861459204" r="4.5" fill="#E53935" stroke="#C2302D" stroke-width="1.5" />
  <circle cx="788.5714285714287" cy="274.33631936973967" r="4.5" fill="#E53935" stroke="#C2302D" stroke-width="1.5" />
  <circle cx="924.2857142857143" cy="246.96097607629838" r="4.5" fill="#E53935" stroke="#C2302D" stroke-width="1.5" />
  <circle cx="1060.0" cy="160.37761791715877" r="4.5" fill="#E53935" stroke="#C2302D" stroke-width="1.5" />
  <polyline points="110.00,353.32 245.71,349.85 381.43,347.48 517.14,345.76 652.86,331.13 788.57,329.13 924.29,312.46 1060.00,207.48" fill="none" stroke="#E53935" stroke-width="3" stroke-linejoin="round" stroke-linecap="round" />
  <circle cx="110.0" cy="353.3214025482051" r="4.5" fill="#E53935" stroke="#C2302D" stroke-width="1.5" />
  <circle cx="245.71428571428572" cy="349.85017690678217" r="4.5" fill="#E53935" stroke="#C2302D" stroke-width="1.5" />
  <circle cx="381.42857142857144" cy="347.48378473164155" r="4.5" fill="#E53935" stroke="#C2302D" stroke-width="1.5" />
  <circle cx="517.1428571428571" cy="345.76473335588275" r="4.5" fill="#E53935" stroke="#C2302D" stroke-width="1.5" />
  <circle cx="652.8571428571429" cy="331.1341253022154" r="4.5" fill="#E53935" stroke="#C2302D" stroke-width="1.5" />
  <circle cx="788.5714285714287" cy="329.1297401383889" r="4.5" fill="#E53935" stroke="#C2302D" stroke-width="1.5" />
  <circle cx="924.2857142857143" cy="312.4619635296485" r="4.5" fill="#E53935" stroke="#C2302D" stroke-width="1.5" />
  <circle cx="1060.0" cy="207.48254780044277" r="4.5" fill="#E53935" stroke="#C2302D" stroke-width="1.5" />
  <polyline points="110.00,446.90 245.71,422.96 381.43,410.50 517.14,399.36 652.86,388.14 788.57,383.39 924.29,376.00 1060.00,336.52" fill="none" stroke="#ebeb49" stroke-width="3" stroke-linejoin="round" stroke-linecap="round" />
  <circle cx="110.0" cy="446.90142819759467" r="4.5" fill="#ebeb49" stroke="#C7C73E" stroke-width="1.5" />
  <circle cx="245.71428571428572" cy="422.956007910668" r="4.5" fill="#ebeb49" stroke="#C7C73E" stroke-width="1.5" />
  <circle cx="381.42857142857144" cy="410.50396392034503" r="4.5" fill="#ebeb49" stroke="#C7C73E" stroke-width="1.5" />
  <circle cx="517.1428571428571" cy="399.3626379118691" r="4.5" fill="#ebeb49" stroke="#C7C73E" stroke-width="1.5" />
  <circle cx="652.8571428571429" cy="388.13596439448315" r="4.5" fill="#ebeb49" stroke="#C7C73E" stroke-width="1.5" />
  <circle cx="788.5714285714287" cy="383.38863435892574" r="4.5" fill="#ebeb49" stroke="#C7C73E" stroke-width="1.5" />
  <circle cx="924.2857142857143" cy="376.00160478262853" r="4.5" fill="#ebeb49" stroke="#C7C73E" stroke-width="1.5" />
  <circle cx="1060.0" cy="336.5228406712632" r="4.5" fill="#ebeb49" stroke="#C7C73E" stroke-width="1.5" />
  <polyline points="110.00,439.66 245.71,436.33 381.43,434.64 517.14,433.64 652.86,428.08 788.57,415.92 924.29,396.27 1060.00,343.03" fill="none" stroke="#9467BD" stroke-width="3" stroke-linejoin="round" stroke-linecap="round" />
  <circle cx="110.0" cy="439.66049390343653" r="4.5" fill="#9467BD" stroke="#7D57A0" stroke-width="1.5" />
  <circle cx="245.71428571428572" cy="436.32653976661584" r="4.5" fill="#9467BD" stroke="#7D57A0" stroke-width="1.5" />
  <circle cx="381.42857142857144" cy="434.64133883789054" r="4.5" fill="#9467BD" stroke="#7D57A0" stroke-width="1.5" />
  <circle cx="517.1428571428571" cy="433.638935130165" r="4.5" fill="#9467BD" stroke="#7D57A0" stroke-width="1.5" />
  <circle cx="652.8571428571429" cy="428.075880033494" r="4.5" fill="#9467BD" stroke="#7D57A0" stroke-width="1.5" />
  <circle cx="788.5714285714287" cy="415.91529979501956" r="4.5" fill="#9467BD" stroke="#7D57A0" stroke-width="1.5" />
  <circle cx="924.2857142857143" cy="396.26814921644836" r="4.5" fill="#9467BD" stroke="#7D57A0" stroke-width="1.5" />
  <circle cx="1060.0" cy="343.0268611711314" r="4.5" fill="#9467BD" stroke="#7D57A0" stroke-width="1.5" />
  <polyline points="110.00,464.50 245.71,461.77 381.43,457.12 517.14,455.93 652.86,453.16 788.57,450.48 924.29,434.58 1060.00,410.56" fill="none" stroke="#17BECF" stroke-width="3" stroke-linejoin="round" stroke-linecap="round" />
  <circle cx="110.0" cy="464.4973293469735" r="4.5" fill="#17BECF" stroke="#13A1AF" stroke-width="1.5" />
  <circle cx="245.71428571428572" cy="461.773203998473" r="4.5" fill="#17BECF" stroke="#13A1AF" stroke-width="1.5" />
  <circle cx="381.42857142857144" cy="457.11616947382623" r="4.5" fill="#17BECF" stroke="#13A1AF" stroke-width="1.5" />
  <circle cx="517.1428571428571" cy="455.92669355617056" r="4.5" fill="#17BECF" stroke="#13A1AF" stroke-width="1.5" />
  <circle cx="652.8571428571429" cy="453.16117130122433" r="4.5" fill="#17BECF" stroke="#13A1AF" stroke-width="1.5" />
  <circle cx="788.5714285714287" cy="450.4782601958354" r="4.5" fill="#17BECF" stroke="#13A1AF" stroke-width="1.5" />
  <circle cx="924.2857142857143" cy="434.58480542188533" r="4.5" fill="#17BECF" stroke="#13A1AF" stroke-width="1.5" />
  <circle cx="1060.0" cy="410.55662453572467" r="4.5" fill="#17BECF" stroke="#13A1AF" stroke-width="1.5" />
  <line x1="120.0" y1="702.0" x2="150.0" y2="702.0" stroke="#1F77B4" stroke-width="4" stroke-linecap="round" />
  <text class="legend" x="162.0" y="702.0">ChronicleMap</text>
  <line x1="357.5" y1="702.0" x2="387.5" y2="702.0" stroke="#2CA02C" stroke-width="4" stroke-linecap="round" />
  <text class="legend" x="399.5" y="702.0">H2</text>
  <line x1="595.0" y1="702.0" x2="625.0" y2="702.0" stroke="#E53935" stroke-width="4" stroke-linecap="round" />
  <text class="legend" x="637.0" y="702.0">HestiaStoreBasic</text>
  <line x1="832.5" y1="702.0" x2="862.5" y2="702.0" stroke="#E53935" stroke-width="4" stroke-linecap="round" />
  <text class="legend" x="874.5" y="702.0">HestiaStoreCompress</text>
  <line x1="120.0" y1="736.0" x2="150.0" y2="736.0" stroke="#ebeb49" stroke-width="4" stroke-linecap="round" />
  <text class="legend" x="162.0" y="736.0">LevelDB</text>
  <line x1="357.5" y1="736.0" x2="387.5" y2="736.0" stroke="#9467BD" stroke-width="4" stroke-linecap="round" />
  <text class="legend" x="399.5" y="736.0">MapDB</text>
  <line x1="595.0" y1="736.0" x2="625.0" y2="736.0" stroke="#17BECF" stroke-width="4" stroke-linecap="round" />
  <text class="legend" x="637.0" y="736.0">RocksDB</text>
</svg>