<?xml version="1.0" encoding="UTF-8"?>
<svg xmlns="http://www.w3.org/2000/svg" width="1000" height="300" viewBox="0 0 1000 300">
  <style>
        text { fill: currentColor; dominant-baseline: middle; }
        .label { font: 500 20px "Inter", "Helvetica Neue", Arial, sans-serif; }
        .value { font: 18px "IBM Plex Mono", "Courier New", monospace; }
    </style>
  <rect x="0" y="10" width="1000" height="40" fill="rgba(255,255,255,0.15)" />
  <text class="label" x="20" y="30">ChronicleMap</text>
  <rect x="250" y="17" width="590" height="26" rx="6" ry="6" fill="#1F77B4" stroke="#1A6599" stroke-width="2" />
  <text class="value" x="856" y="30">2,217,421</text>
  <rect x="0" y="70" width="1000" height="40" fill="rgba(255,255,255,0.15)" />
  <text class="label" x="20" y="90">H2</text>
  <rect x="250" y="77" width="244" height="26" rx="6" ry="6" fill="#2CA02C" stroke="#258825" stroke-width="2" />
  <text class="value" x="510" y="90">918,605</text>
  <rect x="0" y="130" width="1000" height="40" fill="rgba(255,255,255,0.15)" />
  <text class="label" x="20" y="150">LevelDB</text>
  <rect x="250" y="137" width="66" height="26" rx="6" ry="6" fill="#ebeb49" stroke="#C7C73E" stroke-width="2" />
  <text class="value" x="332" y="150">249,702</text>
  <rect x="0" y="190" width="1000" height="40" fill="rgba(255,255,255,0.15)" />
  <text class="label" x="20" y="210">MapDB</text>
  <rect x="250" y="197" width="51" height="26" rx="6" ry="6" fill="#9467BD" stroke="#7D57A0" stroke-width="2" />
  <text class="value" x="317" y="210">192,366</text>
  <rect x="0" y="250" width="1000" height="40" fill="rgba(255,255,255,0.15)" />
  <text class="label" x="20" y="270">RocksDB</text>
  <rect x="250" y="257" width="42" height="26" rx="6" ry="6" fill="#17BECF" stroke="#13A1AF" stroke-width="2" />
  <text class="value" x="308" y="270">158,462</text>
</svg>