<?xml version="1.0" encoding="UTF-8"?>
<svg xmlns="http://www.w3.org/2000/svg" width="1120" height="794" viewBox="0 0 1120 794">
  <style>
        text { fill: currentColor; dominant-baseline: middle; }
        .title { font: 600 26px "Inter", "Helvetica Neue", Arial, sans-serif; }
        .subtitle { font: 16px "Inter", "Helvetica Neue", Arial, sans-serif; fill: #5B667A; }
        .axis-label { font: 500 16px "Inter", "Helvetica Neue", Arial, sans-serif; }
        .tick { font: 14px "IBM Plex Mono", "Courier New", monospace; fill: #5B667A; }
        .legend { font: 500 16px "Inter", "Helvetica Neue", Arial, sans-serif; }
        .grid { stroke: #D7DCE5; stroke-width: 1; fill: none; }
        .axis { stroke: #8A94A6; stroke-width: 1.5; fill: none; }
    </style>
  <text class="title" x="110" y="36">Multi-thread Write Latency Percentiles</text>
  <text class="subtitle" x="110" y="66">X axis: percentile, Y axis: latency (log scale)</text>
  <line class="grid" x1="110" y1="572.5127937004496" x2="1060" y2="572.5127937004496" />
  <text class="tick" x="96" y="572.5127937004496" text-anchor="end">2 us</text>
  <line class="grid" x1="110" y1="538.8205396328838" x2="1060" y2="538.8205396328838" />
  <text class="tick" x="96" y="538.8205396328838" text-anchor="end">5 us</text>
  <line class="grid" x1="110" y1="513.3333333333334" x2="1060" y2="513.3333333333334" />
  <text class="tick" x="96" y="513.3333333333334" text-anchor="end">10 us</text>
  <line class="grid" x1="110" y1="487.8461270337829" x2="1060" y2="487.8461270337829" />
  <text class="tick" x="96" y="487.8461270337829" text-anchor="end">20 us</text>
  <line class="grid" x1="110" y1="454.1538729662171" x2="1060" y2="454.1538729662171" />
  <text class="tick" x="96" y="454.1538729662171" text-anchor="end">50 us</text>
  <line class="grid" x1="110" y1="428.6666666666667" x2="1060" y2="428.6666666666667" />
  <text class="tick" x="96" y="428.6666666666667" text-anchor="end">100 us</text>
  <line class="grid" x1="110" y1="403.17946036711623" x2="1060" y2="403.17946036711623" />
  <text class="tick" x="96" y="403.17946036711623" text-anchor="end">200 us</text>
  <line class="grid" x1="110" y1="369.4872062995504" x2="1060" y2="369.4872062995504" />
  <text class="tick" x="96" y="369.4872062995504" text-anchor="end">500 us</text>
  <line class="grid" x1="110" y1="344.0" x2="1060" y2="344.0" />
  <text class="tick" x="96" y="344.0" text-anchor="end">1 000 us</text>
  <line class="grid" x1="110" y1="318.51279370044955" x2="1060" y2="318.51279370044955" />
  <text class="tick" x="96" y="318.51279370044955" text-anchor="end">2 000 us</text>
  <line class="grid" x1="110" y1="284.8205396328837" x2="1060" y2="284.8205396328837" />
  <text class="tick" x="96" y="284.8205396328837" text-anchor="end">5 000 us</text>
  <line class="grid" x1="110" y1="259.33333333333337" x2="1060" y2="259.33333333333337" />
  <text class="tick" x="96" y="259.33333333333337" text-anchor="end">10 000 us</text>
  <line class="grid" x1="110" y1="233.84612703378292" x2="1060" y2="233.84612703378292" />
  <text class="tick" x="96" y="233.84612703378292" text-anchor="end">20 000 us</text>
  <line class="grid" x1="110" y1="200.15387296621708" x2="1060" y2="200.15387296621708" />
  <text class="tick" x="96" y="200.15387296621708" text-anchor="end">50 000 us</text>
  <line class="grid" x1="110" y1="174.66666666666663" x2="1060" y2="174.66666666666663" />
  <text class="tick" x="96" y="174.66666666666663" text-anchor="end">100 000 us</text>
  <line class="grid" x1="110" y1="149.1794603671163" x2="1060" y2="149.1794603671163" />
  <text class="tick" x="96" y="149.1794603671163" text-anchor="end">200 000 us</text>
  <line class="grid" x1="110" y1="115.48720629955045" x2="1060" y2="115.48720629955045" />
  <text class="tick" x="96" y="115.48720629955045" text-anchor="end">500 000 us</text>
  <line class="axis" x1="110" y1="598" x2="1060" y2="598" />
  <line class="axis" x1="110" y1="90" x2="110" y2="598" />
  <line class="grid" x1="110.0" y1="90" x2="110.0" y2="598" />
  <text class="tick" x="110.0" y="626" text-anchor="middle">p50</text>
  <line class="grid" x1="245.71428571428572" y1="90" x2="245.71428571428572" y2="598" />
  <text class="tick" x="245.71428571428572" y="626" text-anchor="middle">p75</text>
  <line class="grid" x1="381.42857142857144" y1="90" x2="381.42857142857144" y2="598" />
  <text class="tick" x="381.42857142857144" y="626" text-anchor="middle">p90</text>
  <line class="grid" x1="517.1428571428571" y1="90" x2="517.1428571428571" y2="598" />
  <text class="tick" x="517.1428571428571" y="626" text-anchor="middle">p95</text>
  <line class="grid" x1="652.8571428571429" y1="90" x2="652.8571428571429" y2="598" />
  <text class="tick" x="652.8571428571429" y="626" text-anchor="middle">p99</text>
  <line class="grid" x1="788.5714285714287" y1="90" x2="788.5714285714287" y2="598" />
  <text class="tick" x="788.5714285714287" y="626" text-anchor="middle">p99.5</text>
  <line class="grid" x1="924.2857142857143" y1="90" x2="924.2857142857143" y2="598" />
  <text class="tick" x="924.2857142857143" y="626" text-anchor="middle">p99.9</text>
  <line class="grid" x1="1060.0" y1="90" x2="1060.0" y2="598" />
  <text class="tick" x="1060.0" y="626" text-anchor="middle">p99.99</text>
  <text class="axis-label" x="585" y="660" text-anchor="middle">Percentile</text>
  <text class="axis-label" x="28" y="344" transform="rotate(-90 28 344)" text-anchor="middle">Latency (us/op)</text>
  <polyline points="110.00,566.24 245.71,337.54 381.43,313.15 517.14,299.90 652.86,279.16 788.57,272.30 924.29,234.87 1060.00,104.72" fill="none" stroke="#1F77B4" stroke-width="3" stroke-linejoin="round" stroke-linecap="round" />
  <circle cx="110.0" cy="566.2402900293916" r="4.5" fill="#1F77B4" stroke="#1A6599" stroke-width="1.5" />
  <circle cx="245.71428571428572" cy="337.5439180045883" r="4.5" fill="#1F77B4" stroke="#1A6599" stroke-width="1.5" />
  <circle cx="381.42857142857144" cy="313.14675582334934" r="4.5" fill="#1F77B4" stroke="#1A6599" stroke-width="1.5" />
  <circle cx="517.1428571428571" cy="299.9017928070027" r="4.5" fill="#1F77B4" stroke="#1A6599" stroke-width="1.5" />
  <circle cx="652.8571428571429" cy="279.1563453112575" r="4.5" fill="#1F77B4" stroke="#1A6599" stroke-width="1.5" />
  <circle cx="788.5714285714287" cy="272.2977277346543" r="4.5" fill="#1F77B4" stroke="#1A6599" stroke-width="1.5" />
  <circle cx="924.2857142857143" cy="234.87022791534122" r="4.5" fill="#1F77B4" stroke="#1A6599" stroke-width="1.5" />
  <circle cx="1060.0" cy="104.72346801824733" r="4.5" fill="#1F77B4" stroke="#1A6599" stroke-width="1.5" />
  <polyline points="110.00,465.94 245.71,441.77 381.43,417.10 517.14,398.51 652.86,333.48 788.57,326.92 924.29,303.08 1060.00,286.32" fill="none" stroke="#2CA02C" stroke-width="3" stroke-linejoin="round" stroke-linecap="round" />
  <circle cx="110.0" cy="465.94006321643144" r="4.5" fill="#2CA02C" stroke="#258825" stroke-width="1.5" />
  <circle cx="245.71428571428572" cy="441.7732956069167" r="4.5" fill="#2CA02C" stroke="#258825" stroke-width="1.5" />
  <circle cx="381.42857142857144" cy="417.10172939246604" r="4.5" fill="#2CA02C" stroke="#258825" stroke-width="1.5" />
  <circle cx="517.1428571428571" cy="398.5114831245106" r="4.5" fill="#2CA02C" stroke="#258825" stroke-width="1.5" />
  <circle cx="652.8571428571429" cy="333.48073317585045" r="4.5" fill="#2CA02C" stroke="#258825" stroke-width="1.5" />
  <circle cx="788.5714285714287" cy="326.9184177798014" r="4.5" fill="#2CA02C" stroke="#258825" stroke-width="1.5" />
  <circle cx="924.2857142857143" cy="303.0764715069997" r="4.5" fill="#2CA02C" stroke="#258825" stroke-width="1.5" />
  <circle cx="1060.0" cy="286.3176532829797" r="4.5" fill="#2CA02C" stroke="#258825" stroke-width="1.5" />
  <polyline points="110.00,581.13 245.71,567.50 381.43,468.98 517.14,449.78 652.86,328.81 788.57,328.46 924.29,327.59 1060.00,290.01" fill="none" stroke="#ebeb49" stroke-width="3" stroke-linejoin="round" stroke-linecap="round" />
  <circle cx="110.0" cy="581.1338514309797" r="4.5" fill="#ebeb49" stroke="#C7C73E" stroke-width="1.5" />
  <circle cx="245.71428571428572" cy="567.5018294076601" r="4.5" fill="#ebeb49" stroke="#C7C73E" stroke-width="1.5" />
  <circle cx="381.42857142857144" cy="468.9806596151727" r="4.5" fill="#ebeb49" stroke="#C7C73E" stroke-width="1.5" />
  <circle cx="517.1428571428571" cy="449.7772292939833" r="4.5" fill="#ebeb49" stroke="#C7C73E" stroke-width="1.5" />
  <circle cx="652.8571428571429" cy="328.8119587372613" r="4.5" fill="#ebeb49" stroke="#C7C73E" stroke-width="1.5" />
  <circle cx="788.5714285714287" cy="328.46483294559005" r="4.5" fill="#ebeb49" stroke="#C7C73E" stroke-width="1.5" />
  <circle cx="924.2857142857143" cy="327.5869864914323" r="4.5" fill="#ebeb49" stroke="#C7C73E" stroke-width="1.5" />
  <circle cx="1060.0" cy="290.0109611463112" r="4.5" fill="#ebeb49" stroke="#C7C73E" stroke-width="1.5" />
  <polyline points="110.00,426.09 245.71,414.58 381.43,403.33 517.14,396.26 652.86,375.03 788.57,298.17 924.29,268.82 1060.00,247.11" fill="none" stroke="#9467BD" stroke-width="3" stroke-linejoin="round" stroke-linecap="round" />
  <circle cx="110.0" cy="426.0882289924504" r="4.5" fill="#9467BD" stroke="#7D57A0" stroke-width="1.5" />
  <circle cx="245.71428571428572" cy="414.57859161035776" r="4.5" fill="#9467BD" stroke="#7D57A0" stroke-width="1.5" />
  <circle cx="381.42857142857144" cy="403.3327437251364" r="4.5" fill="#9467BD" stroke="#7D57A0" stroke-width="1.5" />
  <circle cx="517.1428571428571" cy="396.2603596185029" r="4.5" fill="#9467BD" stroke="#7D57A0" stroke-width="1.5" />
  <circle cx="652.8571428571429" cy="375.026163750807" r="4.5" fill="#9467BD" stroke="#7D57A0" stroke-width="1.5" />
  <circle cx="788.5714285714287" cy="298.1726732980738" r="4.5" fill="#9467BD" stroke="#7D57A0" stroke-width="1.5" />
  <circle cx="924.2857142857143" cy="268.8243281207509" r="4.5" fill="#9467BD" stroke="#7D57A0" stroke-width="1.5" />
  <circle cx="1060.0" cy="247.11174238579918" r="4.5" fill="#9467BD" stroke="#7D57A0" stroke-width="1.5" />
  <polyline points="110.00,516.91 245.71,508.34 381.43,505.05 517.14,502.68 652.86,487.73 788.57,477.33 924.29,328.07 1060.00,327.59" fill="none" stroke="#17BECF" stroke-width="3" stroke-linejoin="round" stroke-linecap="round" />
  <circle cx="110.0" cy="516.9144758155322" r="4.5" fill="#17BECF" stroke="#13A1AF" stroke-width="1.5" />
  <circle cx="245.71428571428572" cy="508.33520557973327" r="4.5" fill="#17BECF" stroke="#13A1AF" stroke-width="1.5" />
  <circle cx="381.42857142857144" cy="505.04601228089246" r="4.5" fill="#17BECF" stroke="#13A1AF" stroke-width="1.5" />
  <circle cx="517.1428571428571" cy="502.68171987752004" r="4.5" fill="#17BECF" stroke="#13A1AF" stroke-width="1.5" />
  <circle cx="652.8571428571429" cy="487.72865004524726" r="4.5" fill="#17BECF" stroke="#13A1AF" stroke-width="1.5" />
  <circle cx="788.5714285714287" cy="477.3268602096333" r="4.5" fill="#17BECF" stroke="#13A1AF" stroke-width="1.5" />
  <circle cx="924.2857142857143" cy="328.0720893866195" r="4.5" fill="#17BECF" stroke="#13A1AF" stroke-width="1.5" />
  <circle cx="1060.0" cy="327.5869864914323" r="4.5" fill="#17BECF" stroke="#13A1AF" stroke-width="1.5" />
  <line x1="120.0" y1="702.0" x2="150.0" y2="702.0" stroke="#1F77B4" stroke-width="4" stroke-linecap="round" />
  <text class="legend" x="162.0" y="702.0">ChronicleMap</text>
  <line x1="357.5" y1="702.0" x2="387.5" y2="702.0" stroke="#2CA02C" stroke-width="4" stroke-linecap="round" />
  <text class="legend" x="399.5" y="702.0">H2</text>
  <line x1="595.0" y1="702.0" x2="625.0" y2="702.0" stroke="#ebeb49" stroke-width="4" stroke-linecap="round" />
  <text class="legend" x="637.0" y="702.0">LevelDB</text>
  <line x1="832.5" y1="702.0" x2="862.5" y2="702.0" stroke="#9467BD" stroke-width="4" stroke-linecap="round" />
  <text class="legend" x="874.5" y="702.0">MapDB</text>
  <line x1="120.0" y1="736.0" x2="150.0" y2="736.0" stroke="#17BECF" stroke-width="4" stroke-linecap="round" />
  <text class="legend" x="162.0" y="736.0">RocksDB</text>
</svg>